<?xml version="1.0" standalone="no"?>
<!DOCTYPE svg PUBLIC "-//W3C//DTD SVG 20010904//EN"
 "http://www.w3.org/TR/2001/REC-SVG-20010904/DTD/svg10.dtd">
<svg version="1.0" xmlns="http://www.w3.org/2000/svg"
 width="1236.000000pt" height="1236.000000pt" viewBox="0 0 1236.000000 1236.000000"
 preserveAspectRatio="xMidYMid meet">
<metadata>
Created by potrace 1.11, written by Peter Selinger 2001-2013
</metadata>
<g transform="translate(0.000000,1236.000000) scale(0.100000,-0.100000)"
fill="#000000" stroke="none">
<path d="M6979 11785 c-361 -61 -662 -281 -823 -602 -36 -71 -80 -194 -90
-248 -3 -16 -9 -55 -15 -85 -14 -75 -6 -312 13 -377 8 -29 12 -53 9 -53 -3 0
0 -7 7 -15 7 -8 10 -15 7 -15 -8 0 37 -119 69 -183 102 -202 292 -391 499
-495 105 -52 246 -96 360 -110 63 -8 235 -8 295 0 208 28 405 113 567 245 57
46 71 59 143 139 128 140 238 392 256 584 12 124 5 268 -16 350 -5 19 -11 46
-14 60 -2 14 -15 54 -29 90 -136 361 -441 623 -822 707 -92 20 -319 25 -416 8z"/>
<path d="M10402 11359 c-9 -4 -20 -5 -24 -3 -4 3 -9 0 -13 -6 -3 -5 -13 -10
-21 -10 -43 0 -413 -198 -829 -445 -132 -78 -261 -154 -287 -169 -68 -38 -143
-118 -178 -187 -79 -156 -78 -348 5 -596 36 -110 134 -319 180 -387 14 -20 25
-39 25 -41 0 -2 14 -28 31 -57 129 -217 285 -528 383 -763 21 -49 44 -103 51
-120 28 -62 104 -275 144 -400 22 -71 45 -143 51 -160 14 -45 79 -299 85 -337
3 -18 14 -76 25 -128 10 -53 26 -150 35 -215 9 -66 18 -130 20 -143 18 -108
25 -503 11 -677 -8 -103 -9 -113 -21 -205 -4 -30 -9 -65 -10 -77 -2 -12 -6
-34 -9 -50 -3 -15 -8 -41 -11 -58 -11 -69 -76 -307 -110 -405 -70 -200 -173
-418 -276 -585 -28 -44 -56 -89 -62 -100 -22 -35 -204 -279 -244 -324 -68 -79
-266 -276 -338 -337 -38 -32 -72 -61 -75 -64 -3 -3 -25 -21 -50 -40 -25 -19
-49 -39 -55 -43 -5 -5 -50 -37 -100 -72 -214 -152 -558 -337 -810 -435 -60
-23 -119 -46 -130 -51 -78 -31 -429 -142 -488 -153 -12 -2 -60 -13 -107 -25
-98 -24 -364 -77 -430 -85 -25 -3 -54 -8 -65 -10 -11 -2 -45 -7 -75 -11 -30
-3 -66 -8 -80 -10 -14 -2 -56 -7 -95 -11 -38 -3 -78 -8 -88 -10 -135 -25 -895
-25 -1035 0 -9 2 -44 7 -77 10 -87 11 -125 16 -173 27 -23 5 -59 12 -80 15
-60 9 -270 64 -367 96 -310 104 -590 246 -845 431 -47 34 -90 66 -96 72 -6 5
-28 24 -49 40 -88 68 -303 276 -395 380 -93 106 -280 348 -280 364 0 5 -4 11
-9 13 -13 5 -159 238 -243 388 -100 179 -168 310 -271 515 -85 171 -99 202
-155 330 -27 62 -94 246 -93 253 1 1 1 3 0 5 0 1 -2 11 -4 22 -3 11 -22 91
-44 178 -52 206 -92 288 -181 378 -38 38 -73 69 -79 69 -5 0 -16 6 -23 13 -23
22 -120 64 -193 82 -110 27 -266 28 -360 1 -5 -2 -23 -6 -40 -11 -16 -4 -127
-56 -245 -114 -118 -59 -258 -126 -310 -150 -233 -107 -392 -193 -462 -249 -7
-6 -40 -32 -73 -58 -126 -96 -178 -172 -181 -262 -4 -117 32 -187 173 -334
172 -180 208 -259 303 -653 111 -463 180 -672 309 -940 212 -441 447 -728
1000 -1225 46 -41 89 -80 95 -85 6 -6 43 -37 81 -70 39 -33 72 -62 75 -66 21
-22 321 -261 444 -353 184 -137 451 -317 576 -388 25 -14 89 -51 142 -81 53
-30 145 -81 205 -112 274 -144 350 -210 420 -365 18 -39 30 -75 73 -215 5 -16
25 -95 45 -175 20 -80 42 -165 49 -190 8 -25 24 -83 36 -130 12 -47 26 -94 31
-105 4 -11 17 -50 28 -87 48 -160 128 -320 192 -386 47 -48 84 -65 239 -107 8
-2 53 -16 100 -30 207 -64 383 -100 430 -90 87 19 299 213 549 505 74 85 145
169 160 185 14 17 48 57 76 90 103 124 283 323 340 378 39 38 148 117 160 117
4 0 25 13 48 29 58 40 108 59 181 71 57 9 84 11 241 24 33 3 146 8 250 11 369
11 459 16 650 40 264 34 512 96 770 193 79 30 97 38 270 114 368 163 796 408
1162 665 253 178 266 185 362 210 33 8 243 9 296 1 56 -8 353 -91 415 -115 8
-3 20 -7 25 -8 6 -2 55 -17 110 -35 295 -94 504 -130 645 -108 107 17 149 47
280 198 36 41 67 77 70 80 20 18 111 145 163 228 81 128 93 162 79 238 -48
260 -275 891 -397 1109 -64 113 -91 173 -103 230 -10 47 -9 200 3 273 14 90
79 323 125 447 84 227 132 359 135 378 2 10 13 50 24 90 22 81 57 256 66 332
3 28 8 60 11 73 2 12 7 46 9 75 3 28 7 75 10 102 15 159 20 320 20 660 0 396
-3 446 -36 675 -13 97 -13 97 -39 220 -12 58 -23 112 -25 120 -43 209 -193
658 -310 925 -159 364 -335 702 -576 1100 -56 94 -129 222 -162 285 -62 117
-88 159 -192 310 -77 111 -104 172 -110 251 -12 151 -21 206 -49 314 -18 68
-72 162 -118 207 -65 64 -166 92 -236 67z"/>
<path d="M5018 9155 c-2 -1 -32 -6 -68 -9 -36 -4 -74 -9 -85 -11 -11 -3 -31
-7 -45 -9 -241 -42 -524 -158 -740 -304 -52 -35 -97 -67 -100 -71 -3 -3 -23
-19 -45 -35 -114 -84 -312 -306 -424 -476 -145 -219 -273 -582 -299 -845 -13
-136 -6 -443 12 -531 2 -12 7 -39 10 -60 49 -306 232 -682 453 -931 215 -243
441 -407 733 -532 91 -38 305 -105 373 -116 18 -3 43 -8 57 -10 14 -3 45 -8
70 -10 25 -3 59 -7 75 -10 40 -6 317 -6 380 0 46 4 80 9 158 21 67 11 207 47
291 75 96 32 416 185 416 199 0 4 8 10 18 13 33 9 220 157 308 244 82 80 190
202 222 249 92 136 124 190 182 309 101 207 165 413 185 600 4 33 8 71 11 85
10 58 3 357 -10 445 -3 22 -9 58 -12 80 -34 229 -157 537 -302 755 -114 172
-283 356 -422 460 -19 14 -45 34 -59 46 -104 83 -322 200 -480 258 -234 85
-407 117 -668 121 -105 2 -193 2 -195 0z"/>
</g>
</svg>
