<svg width="68" height="20" viewBox="0 0 68 20" fill="none" xmlns="http://www.w3.org/2000/svg">
<path d="M7.78938 0.783998H6.30138V13.12C6.30138 17.008 5.02938 18.016 2.79738 18.016C2.00538 18.016 1.35738 17.872 0.901376 17.68L0.637376 18.88C1.11738 19.096 2.02938 19.288 2.84538 19.288C5.53338 19.288 7.78938 17.944 7.78938 13.36V0.783998ZM22.4472 2.32C22.4472 1.672 22.0152 1.144 21.3432 1.144C20.6952 1.144 20.2152 1.696 20.2152 2.32C20.2152 2.968 20.6712 3.52 21.3192 3.52C21.9672 3.52 22.4472 3.04 22.4472 2.32ZM22.0632 6.016H20.5752V19H22.0632V6.016ZM45.2545 11.128C45.2545 6.448 42.1345 5.704 40.7905 5.704C38.7025 5.704 37.1425 6.88 36.4465 8.272H36.3985L36.2785 6.016H34.9345C34.9825 7.024 35.0305 7.936 35.0305 9.184V19H36.5185V10.96C36.5185 8.896 38.1745 6.952 40.3585 6.952C42.9265 6.952 43.7665 9.016 43.7665 11.32V19H45.2545V11.128ZM65.2879 5.992L63.2239 9.088C62.7199 9.808 62.2399 10.504 61.7839 11.296H61.7119C61.2319 10.504 60.7999 9.856 60.2959 9.088L58.1839 5.992H56.5279L60.9199 12.352L56.2639 19H57.9439L60.0799 15.784C60.6559 14.92 61.1599 14.2 61.6159 13.36H61.6639C62.1919 14.224 62.6479 14.992 63.1999 15.784L65.3839 19H67.0879L62.5279 12.328L66.9439 5.992H65.2879Z" fill="#EEEEEE"/>
</svg>
