<?xml version="1.0" ?><svg id="Layer_1" style="enable-background:new 0 0 50 50;" version="1.1" viewBox="0 0 50 50" xml:space="preserve" xmlns="http://www.w3.org/2000/svg" xmlns:xlink="http://www.w3.org/1999/xlink"><g id="Layer_1_1_"><path d="M1,43h48V7H1V43z M3,41v-7.586l11-11l10,10l17-17l6,6V41H3z M47,9v9.586l-6-6l-17,17l-10-10l-11,11V9H47z"/><path d="M24,22c2.757,0,5-2.243,5-5s-2.243-5-5-5s-5,2.243-5,5S21.243,22,24,22z M24,14c1.654,0,3,1.346,3,3s-1.346,3-3,3   s-3-1.346-3-3S22.346,14,24,14z"/></g></svg>