<?xml version="1.0" standalone="no"?>
<!DOCTYPE svg PUBLIC "-//W3C//DTD SVG 20010904//EN"
 "http://www.w3.org/TR/2001/REC-SVG-20010904/DTD/svg10.dtd">
<svg version="1.0" xmlns="http://www.w3.org/2000/svg"
 width="700.000000pt" height="700.000000pt" viewBox="0 0 700.000000 700.000000"
 preserveAspectRatio="xMidYMid meet">
<metadata>
Created by potrace 1.11, written by Peter Selinger 2001-2013
</metadata>
<g transform="translate(0.000000,700.000000) scale(0.100000,-0.100000)"
fill="#000000" stroke="none">
<path d="M4038 6685 c-2 -2 -25 -5 -53 -8 -91 -10 -119 -18 -213 -64 -169 -82
-299 -245 -336 -423 -17 -78 -13 -236 7 -300 73 -228 256 -395 488 -446 55
-12 189 -10 254 3 83 16 212 77 275 130 223 184 293 495 169 748 -92 188 -276
323 -479 350 -71 9 -109 13 -112 10z"/>
<path d="M5875 6429 c-93 -28 -636 -335 -701 -396 -51 -48 -77 -114 -79 -203
-3 -127 39 -248 166 -470 168 -296 282 -561 359 -835 32 -115 67 -271 76 -340
3 -22 7 -53 9 -70 8 -57 19 -210 18 -275 -1 -544 -217 -1012 -638 -1380 -213
-186 -587 -375 -902 -456 -101 -25 -278 -64 -318 -69 -27 -4 -52 -8 -56 -10
-3 -2 -39 -7 -80 -11 -40 -3 -77 -8 -80 -10 -3 -1 -61 -6 -130 -10 -334 -20
-580 1 -834 72 -49 13 -99 29 -110 34 -11 5 -45 19 -75 30 -75 29 -230 113
-303 163 -33 23 -76 53 -96 66 -62 42 -294 282 -368 381 -63 85 -143 209 -204
317 -39 68 -204 397 -228 453 -24 56 -58 158 -65 197 -14 70 -51 184 -71 220
-57 97 -169 160 -295 168 -90 5 -146 -11 -293 -84 -67 -32 -166 -80 -220 -105
-165 -77 -308 -180 -343 -249 -18 -33 -12 -103 12 -149 8 -16 42 -57 75 -91
86 -89 120 -165 179 -402 67 -266 97 -353 180 -520 118 -238 253 -403 529
-651 30 -27 62 -56 71 -64 39 -38 254 -214 335 -275 133 -100 292 -202 450
-290 273 -152 271 -150 334 -285 10 -22 44 -138 56 -195 3 -11 25 -92 50 -180
71 -245 121 -335 205 -363 91 -30 280 -80 325 -86 45 -6 55 -4 96 23 60 40
178 164 364 381 219 255 249 283 380 352 46 24 122 32 432 43 144 5 241 12
283 20 14 3 42 7 63 10 111 13 350 85 483 145 241 109 455 231 698 398 77 52
160 101 185 109 78 24 193 11 366 -42 285 -88 318 -96 412 -100 51 -3 105 0
120 6 59 22 202 186 273 313 33 58 33 59 21 118 -31 152 -137 442 -227 625
-65 130 -70 172 -39 323 10 49 34 129 57 194 107 294 131 400 154 681 12 156
5 619 -11 645 -1 3 -6 28 -9 55 -8 58 -8 58 -40 196 -74 314 -238 689 -479
1096 -53 89 -106 181 -118 205 -12 24 -51 87 -87 141 -64 97 -65 100 -78 200
-7 56 -17 117 -23 135 -15 50 -57 117 -83 134 -31 20 -96 29 -133 17z"/>
<path d="M2848 5185 c-2 -2 -32 -6 -68 -10 -36 -4 -67 -8 -71 -10 -3 -2 -19
-6 -35 -9 -56 -10 -160 -48 -239 -88 -323 -162 -551 -474 -609 -834 -13 -83
-14 -278 -2 -344 74 -390 296 -683 639 -845 225 -107 438 -130 726 -80 121 21
341 128 446 217 84 70 103 89 157 153 76 91 68 80 114 160 107 186 154 358
155 565 0 359 -166 689 -456 908 -131 98 -341 186 -495 207 -60 8 -256 15
-262 10z"/>
</g>
</svg>
