<svg width="836" height="812" viewBox="0 0 836 812" fill="none" xmlns="http://www.w3.org/2000/svg">
<path fill-rule="evenodd" clip-rule="evenodd" d="M708.949 716.833C787.086 640.989 835.64 534.834 835.64 417.34C835.64 186.849 648.791 0 418.301 0C187.81 0 0.960938 186.849 0.960938 417.34C0.960938 600.194 118.558 755.581 282.248 812V734.674L502.916 501.799C523.888 478.636 540.633 458.135 553.154 440.293C565.674 422.452 574.595 406.332 579.916 391.934C585.237 377.536 587.897 364.077 587.897 351.556C587.897 322.447 580.855 299.911 566.769 283.947C552.684 267.671 532.495 259.533 506.203 259.533C486.797 259.533 470.364 264.385 456.905 274.088C443.446 283.478 433.116 296.468 425.917 313.057C418.718 329.333 415.119 347.957 415.119 368.928H268.163C268.163 327.299 278.023 289.269 297.742 254.838C317.774 220.094 345.788 192.55 381.784 172.205C417.779 151.546 460.348 141.217 509.49 141.217C583.046 141.217 639.073 158.589 677.573 193.333C716.073 228.076 735.322 276.122 735.322 337.471C735.322 368.772 728.906 398.664 716.073 427.147C703.239 455.318 685.242 483.801 662.079 512.597C638.917 541.394 611.373 572.068 579.446 604.621L472.398 716.833H708.949Z" fill="url(#paint0_linear)"/>
<defs>
<linearGradient id="paint0_linear" x1="651.423" y1="-2.74474e-07" x2="654.916" y2="810.389" gradientUnits="userSpaceOnUse">
<stop stop-color="#91E4FF"/>
<stop offset="1" stop-color="#86FFE2"/>
</linearGradient>
</defs>
</svg>
