<?xml version="1.0" ?><svg viewBox="0 0 48 48" xmlns="http://www.w3.org/2000/svg"><title/><g data-name="3-Online Document" id="_3-Online_Document"><path d="M43,0H5A5,5,0,0,0,0,5V43a5,5,0,0,0,5,5H17V46H5a3,3,0,0,1-3-3V9H46v9h2V5A5,5,0,0,0,43,0Zm3,7H2V5A3,3,0,0,1,5,2H43a3,3,0,0,1,3,3Z"/><path d="M40.71,16.29A1,1,0,0,0,40,16H23a3,3,0,0,0-3,3V45a3,3,0,0,0,3,3H45a3,3,0,0,0,3-3V24a1,1,0,0,0-.29-.71ZM41,19.41,44.59,23H42a1,1,0,0,1-1-1ZM46,45a1,1,0,0,1-1,1H23a1,1,0,0,1-1-1V19a1,1,0,0,1,1-1H39v4a3,3,0,0,0,3,3h4Z"/><rect height="2" width="10" x="26" y="28"/><rect height="2" width="16" x="26" y="34"/><rect height="2" width="16" x="26" y="40"/></g></svg>