<svg width="176" height="62" viewBox="0 0 176 62" fill="none" xmlns="http://www.w3.org/2000/svg">
<path d="M14.3303 44.304C14.3303 47.904 13.7063 50.952 12.4583 53.448C11.2583 55.944 9.60232 57.84 7.49031 59.136C5.42631 60.432 3.14631 61.128 0.650314 61.224V59.928C4.15431 59.736 7.08231 58.248 9.43431 55.464C11.7863 52.728 12.9623 48.936 12.9623 44.088V0.455998H14.3303V44.304ZM55.9171 23.784H57.3571V51H55.9171V23.784ZM55.0531 15.216C55.0531 14.784 55.1971 14.424 55.4851 14.136C55.8211 13.8 56.2291 13.632 56.7091 13.632C57.1411 13.632 57.5011 13.8 57.7891 14.136C58.1251 14.424 58.2931 14.784 58.2931 15.216C58.2931 15.648 58.1251 16.032 57.7891 16.368C57.5011 16.656 57.1411 16.8 56.7091 16.8C56.2291 16.8 55.8211 16.656 55.4851 16.368C55.1971 16.032 55.0531 15.648 55.0531 15.216ZM98.2536 23.784L98.4696 31.056C99.3336 28.656 100.846 26.76 103.006 25.368C105.214 23.976 107.638 23.28 110.278 23.28C112.822 23.28 114.838 24.048 116.326 25.584C117.862 27.072 118.654 28.992 118.702 31.344V51H117.262V31.488C117.214 29.568 116.566 27.96 115.318 26.664C114.118 25.32 112.39 24.6 110.134 24.504C108.118 24.504 106.222 24.96 104.446 25.872C102.718 26.736 101.302 27.984 100.198 29.616C99.1416 31.2 98.6136 33.072 98.6136 35.232V51H97.1736V23.784H98.2536ZM175.892 51H174.308L165.092 38.544L156.164 51H154.508L164.228 37.392L154.22 23.784H156.02L165.236 36.384L174.092 23.856H175.676L166.028 37.536L175.892 51Z" fill="#434343"/>
</svg>
