<svg width="309" height="309" viewBox="0 0 309 309" fill="none" xmlns="http://www.w3.org/2000/svg">
<g opacity="0.1">
<path d="M7.11839 145.775C12.9068 141.695 17.0412 140.879 29.4449 134.351C36.8871 130.434 49.2909 132.719 52.5985 142.511C55.9062 152.304 52.3842 150.672 67.4831 178.417C91.4636 222.483 126.577 225.747 146.04 225.747C165.886 225.747 218.809 220.851 242.789 178.417C267.288 135.065 239.481 84.5727 231.212 70.7001C222.943 56.8274 222.282 45.4029 231.212 40.5067C238.654 36.4265 246.924 30.7142 257.674 25.818C268.423 20.9218 270.077 35.6105 270.077 39.6907C270.077 43.7709 275.039 47.851 277.519 53.5633C280 59.2755 305.635 94.3651 306.461 131.087C307.288 167.808 300.673 174.337 298.192 183.313C295.712 192.29 294.885 197.186 298.192 202.082C301.5 206.978 309.769 230.643 308.942 233.091C308.115 235.54 303.981 242.068 298.192 247.78C293.197 252.71 280.827 247.78 272.558 245.332C266.526 243.546 258.5 240.436 251.885 245.332C245.27 250.228 231.212 260.021 213.02 267.365C194.828 274.709 179.944 273.077 170.021 273.893C160.098 274.709 162.578 274.709 156.79 277.973C151.001 281.238 131.155 309.799 125.367 308.983C119.579 308.167 115.444 306.535 109.656 304.903C103.867 303.271 101.387 291.03 97.252 275.525C94.6407 265.733 90.6367 264.917 83.1944 260.837C73.2715 255.396 60.0409 247.78 36.8873 225.747C13.7338 203.714 13.7336 180.865 9.59905 170.257C6.54285 162.415 2.15679 162.096 0.502959 157.2C-1.15087 152.304 1.32998 149.856 7.11839 145.775Z" fill="url(#paint0_linear)"/>
<path d="M179.33 129.67C179.33 157.097 157.096 179.33 129.67 179.33C102.243 179.33 80.0088 157.097 80.0088 129.67C80.0088 102.243 102.243 80.009 129.67 80.009C157.096 80.009 179.33 102.243 179.33 129.67Z" fill="url(#paint1_linear)"/>
<path d="M207.098 41.5893C207.098 56.8264 194.54 69.1786 179.049 69.1786C163.558 69.1786 151 56.8264 151 41.5893C151 26.3521 163.558 14 179.049 14C194.54 14 207.098 26.3521 207.098 41.5893Z" fill="url(#paint2_linear)"/>
</g>
<defs>
<linearGradient id="paint0_linear" x1="154.5" y1="24.8303" x2="154" y2="371" gradientUnits="userSpaceOnUse">
<stop stop-color="#0047FF"/>
<stop offset="1" stop-color="#00A3FF"/>
</linearGradient>
<linearGradient id="paint1_linear" x1="179.049" y1="14" x2="180" y2="179" gradientUnits="userSpaceOnUse">
<stop stop-color="#00C2FF"/>
<stop offset="1" stop-color="#00FFC2"/>
</linearGradient>
<linearGradient id="paint2_linear" x1="179.049" y1="14" x2="180" y2="179" gradientUnits="userSpaceOnUse">
<stop stop-color="#00C2FF"/>
<stop offset="1" stop-color="#00FFC2"/>
</linearGradient>
</defs>
</svg>
