<svg width="63" height="25" viewBox="0 0 63 25" fill="none" xmlns="http://www.w3.org/2000/svg">
<path d="M6.97248 17.004C6.97248 18.4787 6.70182 19.7387 6.16048 20.784C5.61915 21.8293 4.89115 22.6227 3.97648 23.164C3.08048 23.724 2.06315 24.0227 0.924484 24.06V22.744C2.26848 22.6693 3.37915 22.1373 4.25648 21.148C5.15248 20.1587 5.60048 18.7493 5.60048 16.92V0.119999H6.97248V17.004ZM19.6307 9.052H20.9467V20H19.6307V9.052ZM19.3507 5.02C19.3507 4.75867 19.4533 4.544 19.6587 4.376C19.864 4.18933 20.088 4.096 20.3307 4.096C20.592 4.096 20.816 4.18933 21.0027 4.376C21.1893 4.544 21.2827 4.75867 21.2827 5.02C21.2827 5.3 21.1893 5.53333 21.0027 5.72C20.816 5.888 20.592 5.972 20.3307 5.972C20.088 5.972 19.864 5.87867 19.6587 5.692C19.4533 5.50533 19.3507 5.28133 19.3507 5.02ZM34.0677 9.052L34.1797 11.488C34.5531 10.6293 35.1597 9.95733 35.9997 9.472C36.8584 8.98667 37.7917 8.744 38.7997 8.744C39.8264 8.744 40.6571 9.052 41.2917 9.668C41.9264 10.2653 42.2531 11.0493 42.2717 12.02V20H40.9277V12.384C40.9091 11.6747 40.6851 11.0867 40.2557 10.62C39.8264 10.1533 39.2011 9.91067 38.3797 9.892C37.6517 9.892 36.9704 10.0693 36.3357 10.424C35.7011 10.7787 35.1877 11.2733 34.7957 11.908C34.4224 12.5427 34.2357 13.28 34.2357 14.12V20H32.9197V9.052H34.0677ZM62.3119 20H60.7439L57.3279 15.436L54.0799 20H52.6799L56.6279 14.512L52.5399 9.052H54.1919L57.5799 13.616L60.7159 9.052H62.0879L58.2239 14.484L62.3119 20Z" fill="#1C1C1C"/>
</svg>
