<svg width="771" height="771" viewBox="0 0 771 771" fill="none" xmlns="http://www.w3.org/2000/svg">
<path d="M17.7614 363.731C32.2043 353.55 42.5202 351.514 73.4693 335.225C92.0386 325.452 122.988 331.153 131.241 355.586C139.494 380.02 130.706 375.948 168.38 445.176C228.215 555.127 315.827 563.272 364.391 563.272C413.909 563.272 545.959 551.055 605.794 445.176C666.923 337.008 597.541 211.021 576.908 176.407C556.275 141.793 554.625 113.287 576.908 101.07C595.477 90.8895 616.11 76.6365 642.933 64.4197C669.755 52.2029 673.882 88.8535 673.882 99.0342C673.882 109.215 686.261 119.395 692.451 133.648C698.641 147.901 762.603 235.455 764.666 327.081C766.729 418.706 750.223 434.996 744.033 457.393C737.844 479.79 735.78 492.007 744.033 504.224C752.286 516.441 772.919 575.489 770.856 581.597C768.793 587.705 758.476 603.994 744.033 618.247C731.568 630.549 700.705 618.247 680.072 612.139C665.021 607.683 644.996 599.922 628.49 612.139C611.984 624.356 576.908 648.789 531.516 667.114C486.124 685.44 448.985 681.367 424.226 683.403C399.467 685.44 405.656 685.44 391.213 693.584C376.77 701.729 327.252 772.993 312.809 770.957C298.366 768.921 288.05 764.849 273.607 760.776C259.164 756.704 252.974 726.162 242.658 687.476C236.142 663.042 226.152 661.006 207.582 650.825C182.823 637.251 149.811 618.247 92.0392 563.272C34.2678 508.296 34.2674 451.285 23.951 424.815C16.3254 405.249 5.3815 404.454 1.25496 392.237C-2.87159 380.02 3.3185 373.912 17.7614 363.731Z" fill="url(#paint0_linear)"/>
<path d="M447.455 323.545C447.455 391.979 391.979 447.455 323.545 447.455C255.111 447.455 199.634 391.979 199.634 323.545C199.634 255.111 255.111 199.634 323.545 199.634C391.979 199.634 447.455 255.111 447.455 323.545Z" fill="url(#paint1_linear)"/>
<path d="M516.74 103.771C516.74 141.79 485.406 172.61 446.754 172.61C408.101 172.61 376.767 141.79 376.767 103.771C376.767 65.7523 408.101 34.9319 446.754 34.9319C485.406 34.9319 516.74 65.7523 516.74 103.771Z" fill="url(#paint2_linear)"/>
<defs>
<linearGradient id="paint0_linear" x1="385.5" y1="61.9553" x2="384.252" y2="925.699" gradientUnits="userSpaceOnUse">
<stop stop-color="#0047FF"/>
<stop offset="1" stop-color="#00A3FF"/>
</linearGradient>
<linearGradient id="paint1_linear" x1="446.754" y1="34.9319" x2="449.126" y2="446.631" gradientUnits="userSpaceOnUse">
<stop stop-color="#00C2FF"/>
<stop offset="1" stop-color="#00FFC2"/>
</linearGradient>
<linearGradient id="paint2_linear" x1="446.754" y1="34.9319" x2="449.126" y2="446.631" gradientUnits="userSpaceOnUse">
<stop stop-color="#00C2FF"/>
<stop offset="1" stop-color="#00FFC2"/>
</linearGradient>
</defs>
</svg>
