<svg width="865" height="865" viewBox="0 0 865 865" fill="none" xmlns="http://www.w3.org/2000/svg">
<g opacity="0.25">
<path d="M19.9269 408.077C36.1307 396.655 47.7043 394.371 82.4267 376.096C103.26 365.131 137.983 371.527 147.242 398.939C156.501 426.352 146.642 421.783 188.909 499.452C256.039 622.808 354.333 631.945 408.817 631.945C464.373 631.945 612.522 618.239 679.652 499.452C748.234 378.095 670.393 236.749 647.244 197.914C624.096 159.08 622.244 127.099 647.244 113.392C668.078 101.971 691.226 85.9799 721.319 72.2736C751.412 58.5674 756.041 99.6864 756.041 111.108C756.041 122.53 769.93 133.952 776.875 149.942C783.819 165.933 855.579 264.161 857.894 366.958C860.209 469.755 841.69 488.03 834.746 513.158C827.801 538.286 825.486 551.992 834.746 565.699C844.005 579.405 867.153 645.652 864.838 652.505C862.523 659.358 850.949 677.633 834.746 693.624C820.76 707.425 786.134 693.624 762.986 686.77C746.1 681.771 723.634 673.064 705.115 686.77C686.597 700.477 647.245 727.889 596.318 748.449C545.392 769.008 503.725 764.439 475.947 766.724C448.17 769.008 455.114 769.008 438.91 778.146C422.706 787.283 367.15 867.236 350.947 864.952C334.743 862.667 323.169 858.099 306.965 853.53C290.761 848.961 283.817 814.695 272.243 771.292C264.933 743.88 253.724 741.596 232.891 730.174C205.113 714.944 168.076 693.624 103.261 631.945C38.4457 570.267 38.4453 506.305 26.8711 476.608C18.3157 454.657 6.03761 453.764 1.40796 440.058C-3.22169 426.352 3.72309 419.499 19.9269 408.077Z" fill="#0081CA"/>
<ellipse cx="362.991" cy="362.991" rx="139.018" ry="139.018" fill="#00FFC2"/>
<ellipse cx="501.222" cy="116.423" rx="78.5193" ry="77.2321" fill="#00FFC2"/>
</g>
</svg>
