<svg width="161" height="42" viewBox="0 0 161 42" fill="none" xmlns="http://www.w3.org/2000/svg">
<path d="M0.967548 19.8141C1.75432 19.2596 2.31628 19.1486 4.00222 18.2613C5.01378 17.7289 6.69973 18.0395 7.14931 19.3705C7.5989 20.7015 7.12019 20.4797 9.17246 24.2509C12.4319 30.2404 17.2046 30.6841 19.8501 30.6841C22.5476 30.6841 29.741 30.0186 33.0005 24.2509C36.3304 18.3584 32.5509 11.4953 31.4269 9.60972C30.3029 7.72412 30.213 6.17127 31.4269 5.50577C32.4385 4.95118 33.5624 4.17475 35.0236 3.50925C36.4847 2.84374 36.7095 4.84027 36.7095 5.39486C36.7095 5.94945 37.3839 6.50403 37.7211 7.28045C38.0583 8.05687 41.5426 12.8263 41.655 17.8176C41.7674 22.8089 40.8682 23.6963 40.531 24.9164C40.1938 26.1365 40.0814 26.802 40.531 27.4675C40.9806 28.133 42.1045 31.3496 41.9921 31.6823C41.8797 32.0151 41.3178 32.9024 40.531 33.6789C39.852 34.349 38.1707 33.6789 37.0467 33.3461C36.2268 33.1034 35.136 32.6806 34.2368 33.3461C33.3376 34.0116 31.4269 35.3426 28.9542 36.3409C26.4815 37.3391 24.4583 37.1173 23.1096 37.2282C21.7608 37.3391 22.098 37.3391 21.3112 37.7828C20.5245 38.2265 17.827 42.1086 17.0402 41.9977C16.2534 41.8868 15.6914 41.6649 14.9047 41.4431C14.1179 41.2213 13.7807 39.5575 13.2187 37.4501C12.8638 36.119 12.3195 36.0081 11.308 35.4535C9.95923 34.7141 8.16089 33.6789 5.01381 30.6841C1.86673 27.6893 1.86671 24.5836 1.30473 23.1417C0.889319 22.0758 0.293156 22.0325 0.0683634 21.367C-0.156429 20.7015 0.180775 20.3687 0.967548 19.8141Z" fill="#0069CA"/>
<path d="M24.3749 17.6249C24.3749 21.3529 21.3529 24.3749 17.6249 24.3749C13.897 24.3749 10.8749 21.3529 10.8749 17.6249C10.8749 13.897 13.897 10.8749 17.6249 10.8749C21.3529 10.8749 24.3749 13.897 24.3749 17.6249Z" fill="#00FFC2"/>
<path d="M28.1492 5.65283C28.1492 7.7239 26.4423 9.40283 24.3367 9.40283C22.2311 9.40283 20.5242 7.7239 20.5242 5.65283C20.5242 3.58176 22.2311 1.90283 24.3367 1.90283C26.4423 1.90283 28.1492 3.58176 28.1492 5.65283Z" fill="#00FFC2"/>
<path d="M73.9725 25.004C73.9725 26.4787 73.7018 27.7387 73.1605 28.784C72.6192 29.8293 71.8912 30.6227 70.9765 31.164C70.0805 31.724 69.0632 32.0227 67.9245 32.06V30.744C69.2685 30.6693 70.3792 30.1373 71.2565 29.148C72.1525 28.1587 72.6005 26.7493 72.6005 24.92V8.12H73.9725V25.004ZM86.6307 17.052H87.9467V28H86.6307V17.052ZM86.3507 13.02C86.3507 12.7587 86.4533 12.544 86.6587 12.376C86.864 12.1893 87.088 12.096 87.3307 12.096C87.592 12.096 87.816 12.1893 88.0027 12.376C88.1893 12.544 88.2827 12.7587 88.2827 13.02C88.2827 13.3 88.1893 13.5333 88.0027 13.72C87.816 13.888 87.592 13.972 87.3307 13.972C87.088 13.972 86.864 13.8787 86.6587 13.692C86.4533 13.5053 86.3507 13.2813 86.3507 13.02ZM101.068 17.052L101.18 19.488C101.553 18.6293 102.16 17.9573 103 17.472C103.858 16.9867 104.792 16.744 105.8 16.744C106.826 16.744 107.657 17.052 108.292 17.668C108.926 18.2653 109.253 19.0493 109.272 20.02V28H107.928V20.384C107.909 19.6747 107.685 19.0867 107.256 18.62C106.826 18.1533 106.201 17.9107 105.38 17.892C104.652 17.892 103.97 18.0693 103.336 18.424C102.701 18.7787 102.188 19.2733 101.796 19.908C101.422 20.5427 101.236 21.28 101.236 22.12V28H99.9197V17.052H101.068ZM129.312 28H127.744L124.328 23.436L121.08 28H119.68L123.628 22.512L119.54 17.052H121.192L124.58 21.616L127.716 17.052H129.088L125.224 22.484L129.312 28Z" fill="#1C1C1C"/>
</svg>
