<?xml version="1.0" ?><svg viewBox="0 0 200 200" xmlns="http://www.w3.org/2000/svg"><title/><g data-name="41-Inbox" id="_41-Inbox"><path d="M46,30.18A3,3,0,0,0,45,30H33a1,1,0,0,0-1,1v5H16V31a1,1,0,0,0-1-1H3a3,3,0,0,0-1,.18V3A1,1,0,0,1,3,2H22V0H3A3,3,0,0,0,0,3V45a3,3,0,0,0,3,3H45a3,3,0,0,0,3-3V26H46ZM46,45a1,1,0,0,1-1,1H3a1,1,0,0,1-1-1V33a1,1,0,0,1,1-1H14v4H10v2H38V36H34V32H45a1,1,0,0,1,1,1Z"/><path d="M35,26A13,13,0,1,0,22,13,13,13,0,0,0,35,26ZM35,2A11,11,0,1,1,24,13,11,11,0,0,1,35,2Z"/><path d="M34,8.41V16a.92.92,0,0,1-1,1H31v2h2a2.92,2.92,0,0,0,3-3V8.41l2.29,2.29,1.41-1.41-4-4a1,1,0,0,0-1.41,0l-4,4,1.41,1.41Z"/></g></svg>